<svg xmlns="http://www.w3.org/2000/svg" width="69.046" height="67.462" viewBox="0 0 69.046 67.462">
  <g id="icons" transform="translate(-1 -1.7)">
    <g id="Group_77" data-name="Group 77" transform="translate(2 2.7)">
      <g id="Group_74" data-name="Group 74">
        <g id="Group_73" data-name="Group 73">
          <g id="Group_72" data-name="Group 72">
            <path id="Path_161525" data-name="Path 161525" d="M35.622,7.885,30.977,4.536A9.449,9.449,0,0,0,25.36,2.7a10.753,10.753,0,0,0-4.1.864L8.4,10.046V23.98h6.157a7.682,7.682,0,0,0,3.457-.756,7.134,7.134,0,0,0,2.593-1.836l1.08-1.188H29.9a5.655,5.655,0,0,0,5.185-3.241,5.266,5.266,0,0,0,.432-1.188,5.473,5.473,0,0,0,.216-1.4H22.011" transform="translate(-1.487 -2.7)" fill="none" stroke="#4b8fcc" stroke-linecap="round" stroke-linejoin="round" stroke-width="2"/>
            <path id="Path_161526" data-name="Path 161526" d="M2,7.8H8.913V24.76H2Z" transform="translate(-2 -2.291)" fill="none" stroke="#4b8fcc" stroke-linecap="round" stroke-linejoin="round" stroke-width="2"/>
          </g>
          <path id="Path_161527" data-name="Path 161527" d="M26.793,19.1c-3.025.432-5.293,2.268-5.293,4.645h9.074" transform="translate(-0.436 -1.384)" fill="none" stroke="#4b8fcc" stroke-linecap="round" stroke-linejoin="round" stroke-width="2"/>
        </g>
        <path id="Path_161528" data-name="Path 161528" d="M32.888,29.4,31.7,30.588" transform="translate(0.383 -0.558)" fill="none" stroke="#4b8fcc" stroke-linecap="round" stroke-linejoin="round" stroke-width="2"/>
        <path id="Path_161529" data-name="Path 161529" d="M37.008,31.7,36.9,33.536" transform="translate(0.8 -0.373)" fill="none" stroke="#4b8fcc" stroke-linecap="round" stroke-linejoin="round" stroke-width="2"/>
        <path id="Path_161530" data-name="Path 161530" d="M42.472,31.2,41.5,29.9" transform="translate(1.169 -0.518)" fill="none" stroke="#4b8fcc" stroke-linecap="round" stroke-linejoin="round" stroke-width="2"/>
      </g>
      <g id="Group_75" data-name="Group 75" transform="translate(29.598 1.836)">
        <path id="Path_161531" data-name="Path 161531" d="M29.4,20.063a20.977,20.977,0,0,0,.216,2.593,14.491,14.491,0,0,0,1.4,4.321l3.781-.648a3.348,3.348,0,1,0,6.589-1.188l4.429-.756-1.08-6.7A3.348,3.348,0,0,0,43.551,11.1l-1.08-6.7a15.788,15.788,0,0,0-12.1,9.83" transform="translate(-29.4 -4.4)" fill="none" stroke="#4b8fcc" stroke-linecap="round" stroke-linejoin="round" stroke-width="2"/>
      </g>
      <path id="Path_161532" data-name="Path 161532" d="M49.5,28.605V21.8a11.109,11.109,0,0,1,1.836.108A15.484,15.484,0,0,1,65.055,35.087,16.438,16.438,0,0,1,64.623,42H60.734a3.349,3.349,0,0,1-6.7,0H49.5V35.195a3.366,3.366,0,0,0,3.349-3.349A3.42,3.42,0,0,0,49.5,28.605Z" transform="translate(1.811 -1.168)" fill="none" stroke="#4b8fcc" stroke-linecap="round" stroke-linejoin="round" stroke-width="2"/>
      <g id="Group_76" data-name="Group 76" transform="translate(51.311 40.833)">
        <path id="Path_161533" data-name="Path 161533" d="M64.515,40.5a15.718,15.718,0,0,1-3.457,6.157,20.263,20.263,0,0,0-4,6.481,20,20,0,0,0-1.4,7.562H49.5" transform="translate(-49.5 -40.5)" fill="none" stroke="#4b8fcc" stroke-linecap="round" stroke-linejoin="round" stroke-width="2"/>
      </g>
      <path id="Path_161534" data-name="Path 161534" d="M50.623,47.2V40.5H46.194a3.458,3.458,0,0,1-6.913,0H35.5a17.9,17.9,0,0,0,3.673,6.373,19.857,19.857,0,0,1,5.4,13.611V60.7h5.941V54a3.535,3.535,0,0,1-3.349-3.457A3.618,3.618,0,0,1,50.623,47.2Z" transform="translate(0.688 0.333)" fill="none" stroke="#4b8fcc" stroke-linecap="round" stroke-linejoin="round" stroke-width="2"/>
      <path id="Path_161535" data-name="Path 161535" d="M44.736,63.621H55.215a1.893,1.893,0,0,0,1.836-1.836v-.648A1.893,1.893,0,0,0,55.215,59.3H44.736A1.893,1.893,0,0,0,42.9,61.136v.648A1.893,1.893,0,0,0,44.736,63.621Z" transform="translate(1.281 1.841)" fill="none" stroke="#4b8fcc" stroke-linecap="round" stroke-linejoin="round" stroke-width="2"/>
      <path id="Path_161536" data-name="Path 161536" d="M49.5,59.1v.108" transform="translate(1.811 1.825)" fill="none" stroke="#4b8fcc" stroke-linecap="round" stroke-linejoin="round" stroke-width="2"/>
    </g>
  </g>
</svg>
